<?xml version="1.0" encoding="utf-8"?>
<!-- Generator: Adobe Illustrator 21.1.0, SVG Export Plug-In . SVG Version: 6.00 Build 0)  -->
<svg version="1.1" id="Capa_1" xmlns="http://www.w3.org/2000/svg" xmlns:xlink="http://www.w3.org/1999/xlink" x="0px" y="0px"
	 viewBox="0 0 553.3 512" style="enable-background:new 0 0 553.3 512;" xml:space="preserve">
<style type="text/css">
	.st0{fill:#9B7E73;}
	.st1{opacity:0.15;enable-background:new    ;}
	.st2{opacity:0.1;}
	.st3{fill:#81D4AE;}
	.st4{fill:#FFD4B8;}
	.st5{fill:#4A5058;}
	.st6{fill:#FFFFFF;}
	.st7{fill:#76C9D2;}
	.st8{opacity:0.1;enable-background:new    ;}
	.st9{opacity:0.1;fill:#513130;enable-background:new    ;}
</style>
<g>
	<path class="st0" d="M283,257c-8.6,0-16-6.4-17.1-15.1c-1.2-9.5,5.5-18.1,15-19.3l184.6-23.3c9.5-1.2,18.1,5.5,19.3,15
		c1.2,9.5-5.5,18.1-15,19.3l-184.6,23.3C284.4,257,283.7,257,283,257z"/>
	<path class="st0" d="M266.6,219.4H149.8v207.8c0,26.2-10.4,51.4-29,69.9l0,0c-5.5,5.5-1.6,14.9,6.1,14.9h162.6
		c7.8,0,11.6-9.4,6.1-14.9l0,0c-18.6-18.5-29-43.7-29-69.9L266.6,219.4L266.6,219.4z"/>
</g>
<path class="st1" d="M149.8,219.4v123.2c8.3,2.7,17.1,4.1,26.3,4.1c20,0,38.5-6.9,53.1-18.4c7.6-6,18.3-6,26,0
	c3.6,2.9,7.5,5.4,11.5,7.7V219.4H149.8z"/>
<g class="st2">
	<path d="M180.6,459.1c-0.8,0-1.6-0.1-2.4-0.4c-3.9-1.3-6-5.6-4.7-9.5c4.6-13.3,4-30.2,3.6-41.4c-0.1-2.9-0.2-5.5-0.2-7.7
		c0-4.1,3.4-7.5,7.5-7.5s7.5,3.4,7.5,7.5c0,2,0.1,4.4,0.2,7.2c0.4,12.3,1.1,30.8-4.4,46.7C186.7,457.1,183.8,459.1,180.6,459.1z"/>
	<path d="M223,388.3c-4.1,0-7.5-3.4-7.5-7.5v-24.1c0-4.1,3.4-7.5,7.5-7.5s7.5,3.4,7.5,7.5v24.1C230.5,384.9,227.1,388.3,223,388.3z"
		/>
	<path d="M244.4,489.6c-2.5,0-4.9-1.2-6.4-3.5c-5.5-8.7-8.2-25.9-8.2-33.1c0-4.1,3.4-7.5,7.5-7.5s7.5,3.4,7.5,7.5
		c0,6,2.7,20,5.9,25.1c2.2,3.5,1.1,8.1-2.4,10.3C247.1,489.2,245.7,489.6,244.4,489.6z"/>
</g>
<path class="st3" d="M413.1,118.8c-1.8-44.1-37.4-79.9-81.5-82c-5.3-0.3-10.5,0-15.6,0.7c-6.6,0.9-13.3-1.4-18-6.2
	C279.5,12,253.3,0,224.4,0c-24.7,0-47.4,8.8-65.1,23.4c-4.7,3.8-10.9,5.4-16.8,4.1c-6.8-1.4-13.8-2.1-20.9-2.1
	c-55.1,0.2-100,45.4-100,100.5c0,11.1,1.8,21.7,5.1,31.6c1.7,5.1,1.5,10.8-0.8,15.7c-5.7,12-8.7,25.5-8.2,39.8
	c1.5,44.1,36.9,80.2,81,82.6c4.5,0.2,8.9,0.1,13.2-0.3c5.1-0.5,10.2,0.8,14.4,3.8c14,10,31.2,16,49.8,16c20,0,38.5-6.9,53.1-18.4
	c7.6-6,18.3-6,26,0c14.3,11.3,32.4,18.1,52,18.4c47.2,0.5,86.3-37.7,86.7-84.9c0.1-10.9-1.8-21.3-5.4-30.9c-2.7-7.1-1.1-15,3.9-20.8
	C406.1,162.7,414.1,141.7,413.1,118.8z"/>
<path class="st4" d="M435.4,381.2c-4.1,0-7.5-3.4-7.5-7.5V203c0-4.1,3.4-7.5,7.5-7.5s7.5,3.4,7.5,7.5v170.7
	C442.9,377.8,439.5,381.2,435.4,381.2z"/>
<g>
	<path class="st5" d="M144.2,163.5c-4.1,0-7.5-3.4-7.5-7.5v-10.9c0-4.1,3.4-7.5,7.5-7.5s7.5,3.4,7.5,7.5V156
		C151.7,160.1,148.3,163.5,144.2,163.5z"/>
	<path class="st5" d="M272.3,163.5c-4.1,0-7.5-3.4-7.5-7.5v-10.9c0-4.1,3.4-7.5,7.5-7.5c4.1,0,7.5,3.4,7.5,7.5V156
		C279.8,160.1,276.4,163.5,272.3,163.5z"/>
	<path class="st5" d="M227.3,164.3c0,10.4-8.6,18.8-19.1,18.4c-10-0.4-17.8-8.9-17.8-18.9v-13c0-2.8,2.3-5,5-5h26.8c2.8,0,5,2.3,5,5
		V164.3z"/>
</g>
<rect x="328" y="347.4" class="st6" width="215.8" height="127.8"/>
<path class="st7" d="M421,475.1c0-15.6-12.6-28.2-28.2-28.2l0,0c-15.6,0-28.2,12.6-28.2,28.2H421z"/>
<g>
	<path class="st6" d="M392.8,455.6l-12.6,5.9c-1.2,0.5-2.5-0.3-2.5-1.6V450L392.8,455.6z"/>
	<path class="st6" d="M392.8,455.6l12.6,5.9c1.2,0.5,2.5-0.3,2.5-1.6V450L392.8,455.6z"/>
</g>
<path class="st8" d="M392.8,446.9L392.8,446.9c-7.7,0-14.7,3.1-19.8,8.2c6,3,12.7,4.7,19.8,4.7s13.9-1.7,19.8-4.7
	C407.5,450,400.5,446.9,392.8,446.9z"/>
<g>
	<circle class="st4" cx="348.4" cy="411.3" r="7.8"/>
	<circle class="st4" cx="437.1" cy="411.3" r="7.8"/>
	<circle class="st4" cx="392.8" cy="411.2" r="44.4"/>
</g>
<g>
	<path class="st5" d="M370.3,414.7c-1.9,0-3.4-1.5-3.4-3.4v-4.4c0-1.9,1.5-3.4,3.4-3.4c1.9,0,3.4,1.5,3.4,3.4v4.4
		C373.7,413.2,372.2,414.7,370.3,414.7z"/>
	<path class="st5" d="M415.3,414.7c-1.9,0-3.4-1.5-3.4-3.4v-4.4c0-1.9,1.5-3.4,3.4-3.4s3.4,1.5,3.4,3.4v4.4
		C418.7,413.2,417.2,414.7,415.3,414.7z"/>
	<path class="st5" d="M392.8,426.9c-2.7,0-5.3-1.1-7.2-3.1c-1.3-1.4-1.2-3.6,0.2-4.9c1.4-1.3,3.6-1.2,4.9,0.2c0.6,0.6,1.4,1,2.2,1
		s1.6-0.3,2.2-1c1.3-1.4,3.5-1.5,4.9-0.2c1.4,1.3,1.5,3.5,0.2,4.9C398.1,425.8,395.5,426.9,392.8,426.9z"/>
	<path class="st5" d="M392.8,366.9c-24.5,0-44.4,19.9-44.4,44.4c6.9,0,14.2-7.3,14.9-22.3c4.7,5.3,31.8,15.8,59.9,7.3
		c2.4,10,8.3,15,13.9,15C437.1,386.7,417.3,366.9,392.8,366.9z"/>
</g>
<path class="st9" d="M399.3,450c-24.5,0-44.4-19.9-44.4-44.4c0-12,4.7-22.8,12.5-30.8c-11.5,8-19,21.3-19,36.4
	c0,24.5,19.9,44.4,44.4,44.4c12.5,0,23.8-5.2,31.9-13.5C417.5,447.1,408.8,450,399.3,450z"/>
<circle class="st6" cx="392.8" cy="467.7" r="1.9"/>
<path class="st0" d="M521.1,417.3v20.5c0,9.6,3.6,18.7,10.1,25.7l0,0c1.7,1.8,0.9,4.7-1.4,5.4l0,0c-34.3,10.5-71,10.5-105.4,0l0,0
	c-2.3-0.7-3.1-3.6-1.4-5.4l0,0c6.5-7,10.1-16.2,10.1-25.7v-20.5H521.1L521.1,417.3z"/>
<path class="st3" d="M506.9,480.5c0-16.4-13.3-29.7-29.7-29.7l0,0c-16.4,0-29.7,13.3-29.7,29.7H506.9z"/>
<path class="st6" d="M477.1,474.4c-5.1,0-9.8-2.6-12.5-7l-5.9-9.7c-1-1.6-0.5-3.7,1.1-4.7c1.6-1,3.7-0.5,4.7,1.1l5.9,9.7
	c1.4,2.3,3.9,3.7,6.6,3.7c2.7,0,5.2-1.4,6.6-3.7l5.9-9.7c1-1.6,3.1-2.1,4.7-1.1c1.6,1,2.1,3.1,1.1,4.7l-5.9,9.7
	C486.9,471.8,482.2,474.4,477.1,474.4z"/>
<path class="st8" d="M477.1,450.7L477.1,450.7c-8.5,0-16.2,3.6-21.6,9.3c6.4,3.6,13.8,5.7,21.6,5.7c7.9,0,15.2-2.1,21.6-5.7
	C493.3,454.3,485.6,450.7,477.1,450.7z"/>
<circle class="st4" cx="433.1" cy="417.4" r="7.8"/>
<circle class="st9" cx="433.1" cy="417.4" r="7.8"/>
<g>
	<circle class="st4" cx="521.1" cy="417.4" r="7.8"/>
	<circle class="st4" cx="477.1" cy="417.3" r="44"/>
</g>
<path class="st0" d="M477.1,373.3c-23.4,0-42.5,18.2-43.9,41.2c17.5,1.3,38.2-21.3,39.3-28.4c0.9,9,33.1,31.5,48.5,27.7
	C519.2,391.2,500.3,373.3,477.1,373.3z"/>
<g>
	<path class="st5" d="M477.1,435.1c-2.7,0-5.3-1.1-7.2-3.1c-1.3-1.4-1.2-3.6,0.2-4.9c1.4-1.3,3.6-1.2,4.9,0.2
		c0.6,0.6,1.3,0.9,2.1,0.9c0.8,0,1.6-0.3,2.1-0.9c1.3-1.4,3.5-1.5,4.9-0.2c1.4,1.3,1.5,3.5,0.2,4.9
		C482.4,434,479.8,435.1,477.1,435.1z"/>
	<path class="st5" d="M458.8,422.9c-1.9,0-3.4-1.5-3.4-3.4c0-0.3-0.2-0.5-0.5-0.5c-0.3,0-0.5,0.2-0.5,0.5c0,1.9-1.5,3.4-3.4,3.4
		c-1.9,0-3.4-1.5-3.4-3.4c0-4.1,3.3-7.4,7.4-7.4s7.4,3.3,7.4,7.4C462.2,421.3,460.7,422.9,458.8,422.9z"/>
	<path class="st5" d="M503.4,422.9c-1.9,0-3.4-1.5-3.4-3.4c0-0.3-0.2-0.5-0.5-0.5s-0.5,0.2-0.5,0.5c0,1.9-1.5,3.4-3.4,3.4
		c-1.9,0-3.4-1.5-3.4-3.4c0-4.1,3.3-7.4,7.4-7.4s7.4,3.3,7.4,7.4C506.8,421.3,505.3,422.9,503.4,422.9z"/>
</g>
<path class="st9" d="M483.6,455.8c-24.3,0-44-19.7-44-44c0-11.9,4.7-22.7,12.4-30.6c-11.4,8-18.9,21.2-18.9,36.1
	c0,24.3,19.7,44,44,44c12.4,0,23.6-5.2,31.6-13.4C501.6,452.9,493,455.8,483.6,455.8z"/>
<path class="st3" d="M530.1,483.7H341.7c-12.8,0-23.1-10.4-23.1-23.1V362c0-12.8,10.4-23.1,23.1-23.1h188.4
	c12.8,0,23.1,10.4,23.1,23.1v98.5C553.3,473.3,542.9,483.7,530.1,483.7z M341.7,353c-5,0-9,4-9,9v98.5c0,5,4,9,9,9h188.4
	c5,0,9-4,9-9V362c0-5-4-9-9-9H341.7L341.7,353z"/>
<path class="st8" d="M360.7,338.9h-19c-12.8,0-23.1,10.4-23.1,23.1v98.5c0,12.8,10.4,23.1,23.1,23.1h55.7
	C367.6,459,340.9,406.9,360.7,338.9z"/>
</svg>
