<svg height="480pt" viewBox="-96 0 480 480" width="480pt" xmlns="http://www.w3.org/2000/svg"><g fill="#60d1e0"><path d="m152 232h104v16h-104zm0 0"/><path d="m32 232h104v16h-104zm0 0"/><path d="m152 176h88v16h-88zm0 0"/><path d="m48 176h88v16h-88zm0 0"/><path d="m152 464h104v16h-104zm0 0"/><path d="m32 464h104v16h-104zm0 0"/><path d="m152 416h88v16h-88zm0 0"/><path d="m48 416h88v16h-88zm0 0"/><path d="m152 288h88v16h-88zm0 0"/><path d="m48 288h88v16h-88zm0 0"/><path d="m152 0h104v16h-104zm0 0"/><path d="m32 0h104v16h-104zm0 0"/><path d="m152 48h88v16h-88zm0 0"/><path d="m48 48h88v16h-88zm0 0"/></g><path d="m144 377.601562c58.496094 27.476563 112 54.34375 112 102.320313h32c0-59.617187-50.398438-92.160156-106.878906-120-10 4.925781-20.175782 9.726563-30.328125 14.484375zm0 0" fill="#348fd9"/><path d="m144 102.28125c-58.503906-27.480469-112-54.328125-112-102.28125h-32c0 59.59375 50.398438 92.128906 106.863281 120 10.015625-4.9375 20.191407-9.734375 30.34375-14.488281zm0 0" fill="#4db7e5"/><path d="m181.136719 120c-10.015625 4.929688-20.191407 9.726562-30.34375 14.488281l-6.792969 3.113281c58.503906 27.511719 112 54.398438 112 102.308594 0 47.914063-53.496094 74.832032-112 102.320313l-6.792969 3.203125c-10.144531 4.75-20.320312 9.597656-30.328125 14.488281-56.480468 27.832031-106.878906 60.375-106.878906 119.988281h32c0-48 53.503906-74.839844 112-102.316406l6.792969-3.203125c10.152343-4.757813 20.328125-9.597656 30.328125-14.488281 56.480468-27.832032 106.878906-60.375 106.878906-119.992188 0-59.613281-50.359375-92.125-106.863281-119.910156zm0 0" fill="#4db7e5"/><path d="m256 0c0 47.953125-53.496094 74.800781-112 102.28125l-6.792969 3.199219c-10.152343 4.75-20.328125 9.550781-30.34375 14.488281-56.464843 27.816406-106.863281 60.351562-106.863281 119.941406 0 59.59375 50.398438 92.160156 106.878906 120 10.007813-4.925781 20.183594-9.734375 30.328125-14.484375l6.792969-3.203125c-58.503906-27.488281-112-54.34375-112-102.320312 0-47.972656 53.496094-74.796875 112-102.277344l6.792969-3.199219c10.152343-4.800781 20.328125-9.601562 30.34375-14.488281 56.503906-27.808594 106.863281-60.34375 106.863281-119.9375zm0 0" fill="#348fd9"/></svg>