<?xml version="1.0" encoding="iso-8859-1"?>
<!-- Generator: Adobe Illustrator 19.0.0, SVG Export Plug-In . SVG Version: 6.00 Build 0)  -->
<svg version="1.1" id="Capa_1" xmlns="http://www.w3.org/2000/svg" xmlns:xlink="http://www.w3.org/1999/xlink" x="0px" y="0px"
	 viewBox="0 0 512.001 512.001" style="enable-background:new 0 0 512.001 512.001;" xml:space="preserve">
<g>
	
		<rect x="55.658" y="389.651" transform="matrix(-0.7071 0.7071 -0.7071 -0.7071 432.6058 703.6542)" style="fill:#FFDE76;" width="29.828" height="103.543"/>
	
		<rect x="241.08" y="157.53" transform="matrix(-0.7071 0.7071 -0.7071 -0.7071 618.0268 256.002)" style="fill:#FFDE76;" width="29.828" height="196.938"/>
	
		<rect x="192.181" y="219.862" transform="matrix(-0.7071 0.7071 -0.7071 -0.7071 569.1241 374.046)" style="fill:#FFDE76;" width="29.828" height="170.061"/>
	
		<rect x="289.993" y="122.077" transform="matrix(0.7071 -0.7071 0.7071 0.7071 -57.1419 276.2622)" style="fill:#FFDE76;" width="29.828" height="170.061"/>
	
		<rect x="426.511" y="18.804" transform="matrix(0.7071 -0.7071 0.7071 0.7071 79.386 332.8052)" style="fill:#FFDE76;" width="29.828" height="103.543"/>
</g>
<g>
	<path style="fill:#FFB641;" d="M255.317,136.43l-21.092,21.092l33.239,33.239c10.757-4.287,21.909-6.873,33.834-8.35
		L255.317,136.43z"/>
	<path style="fill:#FFB641;" d="M196.918,175.825l-21.092,21.092l36.002,36.002c3.063-3.657,6.413-7.321,10.092-10.999
		c3.68-3.68,7.338-7.026,10.993-10.099L196.918,175.825z"/>
	<path style="fill:#FFB641;" d="M157.522,234.224l-21.092,21.092l45.933,45.933c1.44-11.559,4.013-22.738,8.431-33.752
		L157.522,234.224z"/>
</g>
<path style="fill:#FC7176;" d="M505.14,113.207c-44.625,44.625-96.392,43.364-146.455,42.145
	c-53.526-1.304-104.083-2.536-154.976,48.357s-49.661,101.45-48.357,154.976c1.22,50.062,2.482,101.828-42.145,146.455
	c-9.149,9.149-23.983,9.149-33.131,0c-9.149-9.149-9.149-23.982,0-33.131c30.427-30.427,29.548-66.505,28.435-112.183
	c-0.707-28.988-1.436-58.964,5.959-90.777c8.633-37.139,26.986-69.349,56.108-98.471s61.332-47.475,98.471-56.108
	c31.814-7.395,61.789-6.665,90.777-5.959c45.677,1.113,81.755,1.992,112.183-28.435c9.149-9.149,23.983-9.149,33.131,0
	C514.288,89.225,514.288,104.058,505.14,113.207z"/>
<g>
	<path style="fill:#FFB641;" d="M415.36,23.426l-21.092,21.092l39.711,39.711c3.196-9.732,8.256-18.125,16.157-26.026L415.36,23.426
		z"/>
	<path style="fill:#FFB641;" d="M84.201,433.948L44.52,394.267l-21.092,21.092l34.777,34.777
		C66.116,442.224,74.539,437.151,84.201,433.948z"/>
</g>
<path style="fill:#80C9FF;" d="M398.794,6.861c-44.625,44.625-43.364,96.392-42.145,146.455
	c1.304,53.526,2.536,104.083-48.357,154.976s-101.45,49.661-154.976,48.357c-50.062-1.22-101.828-2.482-146.455,42.145
	c-9.149,9.149-9.149,23.983,0,33.131s23.982,9.149,33.131,0c30.427-30.427,66.505-29.548,112.183-28.435
	c28.988,0.707,58.964,1.436,90.777-5.959c37.139-8.633,69.349-26.986,98.471-56.108c29.122-29.122,47.475-61.332,56.108-98.47
	c7.395-31.814,6.665-61.789,5.959-90.779c-1.113-45.677-1.992-81.755,28.435-112.183c9.149-9.149,9.149-23.983,0-33.131
	C422.777-2.287,407.943-2.287,398.794,6.861z"/>
<g>
</g>
<g>
</g>
<g>
</g>
<g>
</g>
<g>
</g>
<g>
</g>
<g>
</g>
<g>
</g>
<g>
</g>
<g>
</g>
<g>
</g>
<g>
</g>
<g>
</g>
<g>
</g>
<g>
</g>
</svg>
