<?xml version="1.0" encoding="iso-8859-1"?>
<!-- Generator: Adobe Illustrator 19.0.0, SVG Export Plug-In . SVG Version: 6.00 Build 0)  -->
<svg version="1.1" id="Capa_1" xmlns="http://www.w3.org/2000/svg" xmlns:xlink="http://www.w3.org/1999/xlink" x="0px" y="0px"
	 viewBox="0 0 512.001 512.001" style="enable-background:new 0 0 512.001 512.001;" xml:space="preserve">
<path style="fill:#4A5058;" d="M439.809,164.995c-1.138,0-2.291-0.259-3.376-0.807L256,73.043L75.567,164.187
	c-3.696,1.868-8.208,0.384-10.076-3.313c-1.867-3.697-0.385-8.208,3.313-10.076l183.814-92.853c2.127-1.074,4.637-1.074,6.764,0
	l183.814,92.853c3.697,1.868,5.18,6.379,3.313,10.076C445.189,163.488,442.549,164.995,439.809,164.995z"/>
<rect x="20.643" y="157.491" style="fill:#FFFFFF;" width="470.71" height="278.84"/>
<path style="fill:#76C9D2;" d="M223.355,435.978c0-33.98-27.546-61.527-61.527-61.527l0,0c-33.98,0-61.527,27.546-61.527,61.527
	H223.355z"/>
<g>
	<path style="fill:#FFFFFF;" d="M161.828,393.543l-27.547,12.913c-2.541,1.191-5.458-0.663-5.458-3.47v-21.662L161.828,393.543z"/>
	<path style="fill:#FFFFFF;" d="M161.828,393.543l27.547,12.913c2.541,1.191,5.458-0.663,5.458-3.47v-21.662L161.828,393.543z"/>
</g>
<path style="opacity:0.1;enable-background:new    ;" d="M161.828,374.451L161.828,374.451c-16.866,0-32.144,6.788-43.258,17.779
	c13.019,6.516,27.709,10.188,43.258,10.188s30.239-3.673,43.258-10.188C193.972,381.24,178.694,374.451,161.828,374.451z"/>
<g>
	<circle style="fill:#FFD4B8;" cx="65.04" cy="296.881" r="17.07"/>
	<circle style="fill:#FFD4B8;" cx="258.62" cy="296.881" r="17.07"/>
	<circle style="fill:#FFD4B8;" cx="161.83" cy="296.751" r="96.79"/>
</g>
<g>
	<path style="fill:#4A5058;" d="M112.748,304.379c-4.143,0-7.5-3.358-7.5-7.5v-9.643c0-4.142,3.357-7.5,7.5-7.5s7.5,3.358,7.5,7.5
		v9.643C120.248,301.021,116.891,304.379,112.748,304.379z"/>
	<path style="fill:#4A5058;" d="M210.908,304.379c-4.143,0-7.5-3.358-7.5-7.5v-9.643c0-4.142,3.357-7.5,7.5-7.5s7.5,3.358,7.5,7.5
		v9.643C218.408,301.021,215.051,304.379,210.908,304.379z"/>
	<path style="fill:#4A5058;" d="M161.828,330.974c-5.932,0-11.662-2.485-15.721-6.819c-2.832-3.023-2.677-7.77,0.347-10.601
		c3.022-2.833,7.77-2.676,10.601,0.347c1.253,1.337,2.947,2.073,4.773,2.073c1.826,0,3.521-0.736,4.773-2.073
		c2.831-3.023,7.576-3.179,10.601-0.347c3.023,2.832,3.179,7.578,0.347,10.601C173.49,328.489,167.76,330.974,161.828,330.974z"/>
	<path style="fill:#4A5058;" d="M161.828,199.961c-53.456,0-96.791,43.335-96.791,96.791c15.044,0,30.952-16.02,32.595-48.706
		c10.305,11.541,69.265,34.371,130.584,16.028c5.157,21.898,18.067,32.678,30.403,32.678
		C258.619,243.296,215.284,199.961,161.828,199.961z"/>
</g>
<path style="opacity:0.1;fill:#513130;enable-background:new    ;" d="M176.172,381.324c-53.456,0-96.791-43.335-96.791-96.791
	c0-26.127,10.356-49.833,27.183-67.246c-25.099,17.488-41.527,46.556-41.527,79.465c0,53.456,43.335,96.791,96.791,96.791
	c27.329,0,52.008-11.33,69.608-29.544C215.766,374.917,196.719,381.324,176.172,381.324z"/>
<circle style="fill:#FFFFFF;" cx="161.83" cy="419.861" r="4.056"/>
<path style="fill:#9B7E73;" d="M441.838,309.999v44.636c0,20.836,7.903,40.896,22.115,56.132l0,0
	c3.616,3.876,1.921,10.2-3.149,11.749l0,0c-74.931,22.884-154.986,22.884-229.917,0l0,0c-5.07-1.548-6.765-7.872-3.149-11.749l0,0
	c14.212-15.236,22.115-35.296,22.115-56.132v-44.636H441.838z"/>
<path style="fill:#81D4AE;" d="M410.71,447.794c0-35.824-29.041-64.865-64.865-64.865l0,0c-35.824,0-64.865,29.041-64.865,64.865
	H410.71z"/>
<path style="fill:#FFFFFF;" d="M345.846,434.576c-11.183,0-21.354-5.687-27.209-15.213l-12.969-21.097
	c-2.169-3.529-1.066-8.148,2.462-10.317c3.527-2.169,8.146-1.068,10.317,2.461l12.969,21.098c3.106,5.052,8.499,8.068,14.43,8.068
	c5.93,0,11.323-3.016,14.429-8.067l12.968-21.098c2.169-3.53,6.788-4.631,10.317-2.462c3.528,2.169,4.631,6.788,2.462,10.317
	l-12.968,21.098C367.198,428.889,357.027,434.576,345.846,434.576z"/>
<path style="opacity:0.1;enable-background:new    ;" d="M345.845,382.929L345.845,382.929c-18.59,0-35.35,7.822-47.177,20.352
	c13.933,7.879,30.028,12.38,47.177,12.38c17.148,0,33.244-4.502,47.177-12.38C381.195,390.751,364.435,382.929,345.845,382.929z"/>
<circle style="fill:#FFD4B8;" cx="249.85" cy="310.121" r="16.929"/>
<circle style="opacity:0.1;fill:#513130;enable-background:new    ;" cx="249.85" cy="310.121" r="16.929"/>
<g>
	<circle style="fill:#FFD4B8;" cx="441.84" cy="310.121" r="16.929"/>
	<circle style="fill:#FFD4B8;" cx="345.85" cy="310.001" r="95.99"/>
</g>
<path style="fill:#9B7E73;" d="M345.845,214.006c-50.956,0-92.63,39.705-95.792,89.863c38.254,2.772,83.222-46.491,85.629-61.847
	c1.9,19.625,72.285,68.668,105.861,60.427C437.693,252.963,396.319,214.006,345.845,214.006z"/>
<g>
	<path style="fill:#4A5058;" d="M345.845,348.782c-5.899,0-11.598-2.472-15.636-6.782c-2.832-3.023-2.677-7.769,0.346-10.601
		c3.024-2.832,7.77-2.676,10.602,0.346c1.23,1.314,2.895,2.037,4.688,2.037c1.794,0,3.459-0.723,4.69-2.037
		c2.832-3.022,7.577-3.178,10.602-0.346c3.022,2.832,3.178,7.578,0.346,10.601C357.443,346.31,351.744,348.782,345.845,348.782z"/>
	<path style="fill:#4A5058;" d="M305.841,322.135c-4.143,0-7.5-3.358-7.5-7.5c0-0.646-0.525-1.171-1.171-1.171
		c-0.645,0-1.171,0.525-1.171,1.171c0,4.142-3.357,7.5-7.5,7.5s-7.5-3.358-7.5-7.5c0-8.917,7.254-16.171,16.171-16.171
		s16.171,7.254,16.171,16.171C313.341,318.777,309.983,322.135,305.841,322.135z"/>
	<path style="fill:#4A5058;" d="M403.191,322.135c-4.143,0-7.5-3.358-7.5-7.5c0-0.646-0.525-1.171-1.171-1.171
		s-1.171,0.525-1.171,1.171c0,4.142-3.357,7.5-7.5,7.5s-7.5-3.358-7.5-7.5c0-8.917,7.254-16.171,16.171-16.171
		s16.171,7.254,16.171,16.171C410.691,318.777,407.334,322.135,403.191,322.135z"/>
</g>
<path style="opacity:0.1;fill:#513130;enable-background:new    ;" d="M360.071,393.873c-53.015,0-95.992-42.977-95.992-95.993
	c0-25.912,10.271-49.422,26.958-66.692c-24.892,17.343-41.184,46.172-41.184,78.81c0,53.015,42.977,95.992,95.993,95.992
	c27.103,0,51.579-11.237,69.034-29.301C399.339,387.519,380.448,393.873,360.071,393.873z"/>
<path style="fill:#FBAB5F;" d="M461.522,454.862H50.478C22.644,454.862,0,432.218,0,404.384V189.442
	c0-27.833,22.644-50.477,50.478-50.477h411.045c27.834,0,50.478,22.644,50.478,50.477v214.943
	C512,432.218,489.356,454.862,461.522,454.862z M50.478,169.797c-10.833,0-19.645,8.813-19.645,19.645v214.943
	c0,10.832,8.812,19.645,19.645,19.645h411.045c10.833,0,19.645-8.813,19.645-19.645V189.442c0-10.832-8.812-19.645-19.645-19.645
	L50.478,169.797L50.478,169.797z"/>
<path style="opacity:0.1;enable-background:new    ;" d="M91.984,138.964H50.477C22.644,138.964,0,161.609,0,189.442v214.943
	c0,27.833,22.644,50.477,50.478,50.477h121.559C107.047,400.925,48.787,287.236,91.984,138.964z"/>
<g>
</g>
<g>
</g>
<g>
</g>
<g>
</g>
<g>
</g>
<g>
</g>
<g>
</g>
<g>
</g>
<g>
</g>
<g>
</g>
<g>
</g>
<g>
</g>
<g>
</g>
<g>
</g>
<g>
</g>
</svg>
