<?xml version="1.0" encoding="iso-8859-1"?>
<!-- Generator: Adobe Illustrator 19.0.0, SVG Export Plug-In . SVG Version: 6.00 Build 0)  -->
<svg version="1.1" id="Capa_1" xmlns="http://www.w3.org/2000/svg" xmlns:xlink="http://www.w3.org/1999/xlink" x="0px" y="0px"
	 viewBox="0 0 512 512" style="enable-background:new 0 0 512 512;" xml:space="preserve">
<g>
	<path style="fill:#5EC08B;" d="M498.299,475.375c7.895,0,13.772-7.314,12.058-15.021c-6.854-30.811-34.35-53.847-67.225-53.847
		c-38.035,0-68.868,30.833-68.868,68.868H498.299z"/>
	<circle style="fill:#5EC08B;" cx="284.5" cy="159.92" r="123.3"/>
</g>
<g>
	<rect x="130.15" y="394.74" style="fill:#81D4AE;" width="262.66" height="80.64"/>
	<path style="fill:#81D4AE;" d="M199.337,103.801C110.05,103.802,37.669,176.183,37.669,265.47c0,0.015,0,0.03,0,0.046
		c0.001,2.823-1.176,5.496-3.233,7.429c-15.106,14.201-24.347,34.568-23.686,57.086c1.144,38.958,32.395,70.905,71.319,72.884
		c9.377,0.477,18.393-0.781,26.778-3.456c25.822,17.474,56.964,27.68,90.491,27.68c89.287,0,161.668-72.381,161.669-161.667
		C361.008,176.268,288.541,103.801,199.337,103.801z"/>
</g>
<g>
	<path style="fill:#5EC08B;" d="M143.745,225.257c8.487,8.487,11.723,20.408,12.932,29.171c0.879,6.369-4.58,11.828-10.949,10.949
		c-8.762-1.209-20.684-4.445-29.171-12.932s-11.723-20.409-12.932-29.171c-0.879-6.369,4.58-11.828,10.949-10.949
		C123.337,213.535,135.259,216.77,143.745,225.257z"/>
	<path style="fill:#5EC08B;" d="M229.414,176.878c8.487-8.487,20.408-11.723,29.171-12.932c6.369-0.879,11.828,4.58,10.949,10.949
		c-1.209,8.762-4.445,20.684-12.932,29.171c-8.487,8.487-20.409,11.723-29.171,12.932c-6.369,0.879-11.828-4.58-10.949-10.949
		C217.692,197.287,220.927,185.365,229.414,176.878z"/>
</g>
<path style="opacity:0.05;enable-background:new    ;" d="M99.788,348.712c-27.678,0-53.281,8.88-74.12,23.943
	c13.01,17.412,33.36,29.088,56.402,30.26c9.377,0.477,18.394-0.781,26.778-3.456c25.822,17.474,56.964,27.68,90.491,27.68
	c5.818,0,11.562-0.314,17.222-0.914C197.367,380.683,152.312,348.712,99.788,348.712z"/>
<path style="fill:#5EC08B;" d="M252.676,475.375c0-69.954-56.709-126.663-126.663-126.663c-65.363,0-119.162,49.509-125.943,113.072
	c-0.775,7.268,4.976,13.591,12.285,13.591H252.676z"/>
<path style="opacity:0.1;enable-background:new    ;" d="M252.676,475.375c0-69.954-56.709-126.663-126.663-126.663
	c-65.363,0-119.162,49.509-125.943,113.072c-0.775,7.268,4.976,13.591,12.285,13.591H252.676z"/>
<rect x="395.51" y="317.49" style="fill:#9B7E73;" width="61.842" height="157.88"/>
<path style="opacity:0.1;enable-background:new    ;" d="M381.652,83.994c-33.659,26.288-59.812,118.274-65.549,195.127
	C368.886,265.166,407.8,217.09,407.8,159.92C407.799,131.281,398.033,104.924,381.652,83.994z"/>
<path style="fill:#81D4AE;" d="M426.434,76.643C473.691,76.643,512,215.422,512,309.17c0,47.257-38.309,85.566-85.566,85.566
	s-85.566-38.309-85.566-85.566C340.868,215.422,379.177,76.643,426.434,76.643z"/>
<g>
	<path style="fill:#FFFFFF;" d="M397.933,256.663H125.028c-7.897,0-14.299,6.402-14.299,14.299v32.767
		c0,7.897,6.402,14.299,14.299,14.299h272.905c7.897,0,14.299-6.402,14.299-14.299v-32.767
		C412.232,263.065,405.83,256.663,397.933,256.663z"/>
	<path style="fill:#FFFFFF;" d="M397.933,318.029H125.028c-7.897,0-14.299,6.402-14.299,14.299v32.767
		c0,7.897,6.402,14.299,14.299,14.299h272.905c7.897,0,14.299-6.402,14.299-14.299v-32.767
		C412.232,324.431,405.83,318.029,397.933,318.029z"/>
</g>
<path style="opacity:0.1;enable-background:new    ;" d="M397.933,318.029H125.028c-7.897,0-14.299,6.402-14.299,14.299v32.767
	c0,7.897,6.402,14.299,14.299,14.299h272.905c7.897,0,14.299-6.402,14.299-14.299v-32.767
	C412.232,324.431,405.83,318.029,397.933,318.029z"/>
<path style="opacity:0.1;enable-background:new    ;" d="M133.752,365.095v-32.767c0-7.897,6.402-14.299,14.299-14.299h-23.024
	c-7.897,0-14.299,6.402-14.299,14.299v32.767c0,7.897,6.402,14.299,14.299,14.299h23.024
	C140.154,379.394,133.752,372.992,133.752,365.095z"/>
<path style="opacity:0.1;enable-background:new    ;" d="M133.752,303.73v-32.767c0-7.897,6.402-14.299,14.299-14.299h-23.024
	c-7.897,0-14.299,6.402-14.299,14.299v32.767c0,7.897,6.402,14.299,14.299,14.299h23.024
	C140.154,318.029,133.752,311.627,133.752,303.73z"/>
<path style="fill:#FFFFFF;" d="M433.464,379.394H89.497c-4.057,0-7.347,3.289-7.347,7.346v15.99c0,4.057,3.289,7.346,7.347,7.346
	h343.967c4.057,0,7.346-3.289,7.346-7.346v-15.99C440.81,382.683,437.521,379.394,433.464,379.394z"/>
<path style="opacity:0.1;enable-background:new    ;" d="M110.729,402.73v-15.99c0-4.057,3.289-7.346,7.346-7.346H89.497
	c-4.057,0-7.347,3.289-7.347,7.346v15.99c0,4.057,3.289,7.346,7.347,7.346h28.578C114.018,410.077,110.729,406.788,110.729,402.73z"
	/>
<path style="fill:#FFFFFF;" d="M140.43,475.375h-20.557c-3.383,0-6.125-2.742-6.125-6.125v-59.173h32.807v59.173
	C146.555,472.633,143.813,475.375,140.43,475.375z"/>
<rect x="113.75" y="410.08" style="opacity:0.15;enable-background:new    ;" width="32.807" height="17.06"/>
<path style="fill:#FFFFFF;" d="M382.531,475.375h20.557c3.383,0,6.125-2.742,6.125-6.125v-59.173h-32.807v59.173
	C376.406,472.633,379.148,475.375,382.531,475.375z"/>
<rect x="376.41" y="410.08" style="opacity:0.15;enable-background:new    ;" width="32.807" height="17.06"/>
<g>
	<circle style="fill:#4A5058;" cx="139.56" cy="348.71" r="7.338"/>
	<circle style="fill:#4A5058;" cx="383.41" cy="348.71" r="7.338"/>
	<circle style="fill:#4A5058;" cx="139.56" cy="287.35" r="7.338"/>
	<circle style="fill:#4A5058;" cx="383.41" cy="287.35" r="7.338"/>
</g>
<path style="fill:#5EC08B;" d="M425.258,206.866c-8.487-8.487-11.723-20.409-12.932-29.171c-0.879-6.369,4.58-11.828,10.949-10.949
	c8.762,1.209,20.684,4.445,29.171,12.932s11.723,20.409,12.932,29.171c0.879,6.369-4.58,11.828-10.949,10.949
	C445.666,218.588,433.745,215.353,425.258,206.866z"/>
<g>
</g>
<g>
</g>
<g>
</g>
<g>
</g>
<g>
</g>
<g>
</g>
<g>
</g>
<g>
</g>
<g>
</g>
<g>
</g>
<g>
</g>
<g>
</g>
<g>
</g>
<g>
</g>
<g>
</g>
</svg>
