<svg id="Capa_1" enable-background="new 0 0 512 512" height="512" viewBox="0 0 512 512" width="512" xmlns="http://www.w3.org/2000/svg"><g><g><path d="m226.097 408.481c-7.744 45.362-22.343 73.238-33.022 88.46-4.449 6.343.074 15.059 7.822 15.059h110.207c7.748 0 12.271-8.716 7.822-15.059-10.679-15.222-25.279-43.098-33.022-88.46l-29.903-9z" fill="#cf8151"/><path d="m226.088 408.48c9.238 3.741 19.331 5.809 29.912 5.809 10.58 0 20.674-2.068 29.912-5.809-.956-5.602-1.815-11.455-2.542-17.599l-27.37-9.002-27.37 8.999c-.727 6.146-1.585 11.999-2.542 17.602z" fill="#bd6e45"/><path d="m492.867 206.691c0-38.317-27.01-70.313-63.026-78.02.013-.594.045-1.184.045-1.781 0-44.073-35.728-79.802-79.802-79.802-6.975 0-13.739.901-20.188 2.582-11.89-29.132-40.488-49.67-73.896-49.67s-62.006 20.538-73.897 49.669c-6.449-1.681-13.213-2.582-20.188-2.582-44.073 0-79.802 35.728-79.802 79.802 0 .597.032 1.187.045 1.781-36.016 7.708-63.026 39.704-63.026 78.02 0 38.317 27.01 70.313 63.026 78.02-.013.594-.045 1.184-.045 1.781 0 6.629.822 13.063 2.346 19.221 16.217 25.005 47.06 49.2 77.456 49.2 8.658 0 16.989-1.391 24.794-3.944 2.099-.687 4.388.027 5.724 1.785 14.574 19.181 37.619 31.573 63.567 31.573s48.993-12.392 63.567-31.573c1.336-1.758 3.625-2.472 5.724-1.785 7.805 2.553 16.136 3.944 24.794 3.944 30.396 0 61.239-24.195 77.456-49.2 1.523-6.158 2.345-12.592 2.345-19.22 0-.597-.032-1.187-.045-1.781 36.016-7.708 63.026-39.704 63.026-78.02z" fill="#b3e59f"/><g><g><g><path d="m350.085 347.713c-8.658 0-16.989-1.391-24.794-3.944-2.099-.687-4.388.027-5.724 1.786-14.574 19.181-37.619 31.573-63.567 31.573s-48.993-12.392-63.567-31.573c-1.336-1.758-3.625-2.472-5.724-1.786-7.805 2.553-16.136 3.944-24.794 3.944-30.396 0-61.239-16.995-77.456-42 8.604 34.786 40.012 60.581 77.456 60.581 9.977 0 19.519-1.847 28.323-5.191 14.39 20.897 38.47 34.605 65.762 34.605s51.372-13.708 65.762-34.605c8.804 3.344 18.346 5.191 28.323 5.191 37.445 0 68.852-25.795 77.456-60.581-16.217 25.005-47.06 42-77.456 42z" fill="#95d6a4"/></g></g></g><path d="m362.518 204.021h-98.776v-14.885h42.292c4.276 0 7.742-3.466 7.742-7.742v-36.551c0-4.276-3.466-7.742-7.742-7.742s-7.742 3.466-7.742 7.742v28.81h-84.585v-28.81c0-4.276-3.466-7.742-7.742-7.742s-7.742 3.466-7.742 7.742v36.551c0 4.276 3.466 7.742 7.742 7.742h42.292v14.885h-98.776c-4.276 0-7.742 3.466-7.742 7.742v37.232c0 4.276 3.466 7.742 7.742 7.742s7.742-3.466 7.742-7.742v-29.49h91.034v29.49c0 4.276 3.466 7.742 7.742 7.742s7.742-3.466 7.742-7.742v-29.49h91.034v29.49c0 4.276 3.466 7.742 7.742 7.742s7.742-3.466 7.742-7.742v-37.232c.001-4.276-3.466-7.742-7.741-7.742z" fill="#f6e080"/><path d="m149.482 291.399c13.682 0 29.2-18.09 29.2-30.347-3.935-12.378-15.518-21.348-29.2-21.348-13.681 0-25.265 8.969-29.2 21.348.001 12.685 15.519 30.347 29.2 30.347z" fill="#dc4955"/><path d="m149.482 282.399c-13.681 0-25.265-8.97-29.2-21.348-.932 2.931-1.438 6.051-1.438 9.29 0 16.921 13.717 30.638 30.638 30.638s30.638-13.717 30.638-30.638c0-3.239-.507-6.36-1.438-9.29-3.935 12.379-15.518 21.348-29.2 21.348z" fill="#d82f3c"/><path d="m256 291.399c13.682 0 29.2-18.09 29.2-30.347-3.935-12.378-15.518-21.348-29.2-21.348-13.681 0-25.265 8.969-29.2 21.348 0 12.685 15.518 30.347 29.2 30.347z" fill="#dc4955"/><path d="m256 282.399c-13.681 0-25.265-8.97-29.2-21.348-.932 2.931-1.438 6.051-1.438 9.29 0 16.921 13.717 30.638 30.638 30.638s30.638-13.717 30.638-30.638c0-3.239-.506-6.36-1.438-9.29-3.935 12.379-15.519 21.348-29.2 21.348z" fill="#d82f3c"/><path d="m362.518 291.399c13.681 0 29.2-18.09 29.2-30.347-3.935-12.378-15.518-21.348-29.2-21.348s-25.265 8.969-29.2 21.348c0 12.685 15.518 30.347 29.2 30.347z" fill="#dc4955"/><path d="m362.518 282.399c-13.682 0-25.265-8.97-29.2-21.348-.932 2.931-1.438 6.051-1.438 9.29 0 16.921 13.717 30.638 30.638 30.638s30.638-13.717 30.638-30.638c0-3.239-.506-6.36-1.438-9.29-3.936 12.379-15.519 21.348-29.2 21.348z" fill="#d82f3c"/><path d="m306.034 144.552c13.682 0 29.2-18.09 29.2-30.347-3.935-12.378-15.518-21.348-29.2-21.348-13.681 0-25.265 8.969-29.2 21.348.001 12.685 15.519 30.347 29.2 30.347z" fill="#dc4955"/><path d="m306.034 135.552c-13.681 0-25.265-8.97-29.2-21.348-.932 2.931-1.438 6.051-1.438 9.29 0 16.921 13.717 30.638 30.638 30.638s30.638-13.717 30.638-30.638c0-3.239-.506-6.36-1.438-9.29-3.935 12.378-15.518 21.348-29.2 21.348z" fill="#d82f3c"/><path d="m205.965 144.552c13.682 0 29.2-18.09 29.2-30.347-3.935-12.378-15.518-21.348-29.2-21.348-13.681 0-25.265 8.969-29.2 21.348.001 12.685 15.519 30.347 29.2 30.347z" fill="#dc4955"/><path d="m205.965 135.552c-13.681 0-25.265-8.97-29.2-21.348-.932 2.931-1.438 6.051-1.438 9.29 0 16.921 13.717 30.638 30.638 30.638s30.638-13.717 30.638-30.638c0-3.239-.507-6.36-1.438-9.29-3.935 12.378-15.518 21.348-29.2 21.348z" fill="#d82f3c"/></g></g></svg>